<svg width="62" height="49" viewBox="0 0 62 49" fill="none" xmlns="http://www.w3.org/2000/svg">
<path d="M17.3438 3.39844H20.6836V3.57422C20.1758 3.58984 19.8242 3.69922 19.6289 3.90234C19.4336 4.09766 19.3359 4.51562 19.3359 5.15625V20.8711L5.56641 6.21094V18.9844C5.56641 19.3906 5.59766 19.6914 5.66016 19.8867C5.72266 20.082 5.8125 20.2148 5.92969 20.2852C6.04688 20.3555 6.33984 20.4258 6.80859 20.4961V20.6602H3.49219V20.4961C4.08594 20.4961 4.45312 20.3906 4.59375 20.1797C4.74219 19.9688 4.81641 19.4648 4.81641 18.668V6.98438C4.81641 5.96094 4.67188 5.125 4.38281 4.47656C4.10156 3.82813 3.44531 3.52734 2.41406 3.57422V3.39844H5.66016L18.5977 17.1797V4.99219C18.5977 4.33594 18.4805 3.9375 18.2461 3.79688C18.0117 3.64844 17.7109 3.57422 17.3438 3.57422V3.39844ZM38.5078 20.6602H35.25V18C33.5859 19.8516 31.6016 20.7773 29.2969 20.7773C27.5859 20.7773 26.2266 20.2969 25.2188 19.3359C24.2188 18.375 23.7188 17.0469 23.7188 15.3516V5.01562C23.7188 4.39063 23.6445 3.99609 23.4961 3.83203C23.3477 3.66016 23 3.57422 22.4531 3.57422V3.39844H27.0352V3.57422C26.5508 3.57422 26.207 3.65234 26.0039 3.80859C25.8086 3.95703 25.7109 4.31641 25.7109 4.88672V14.3672C25.7109 16.3516 26.1758 17.7695 27.1055 18.6211C28.0352 19.4648 29.0938 19.8867 30.2812 19.8867C32.1484 19.8867 33.8047 19.0469 35.25 17.3672V5.68359C35.25 4.66016 35.1602 4.05469 34.9805 3.86719C34.8008 3.67187 34.5195 3.57422 34.1367 3.57422H33.9727V3.39844H38.5078V3.57422C37.9453 3.60547 37.5898 3.69922 37.4414 3.85547C37.3008 4.01172 37.2305 4.30859 37.2305 4.74609V18.8086C37.2305 19.3633 37.2578 19.7266 37.3125 19.8984C37.3672 20.0703 37.4766 20.2148 37.6406 20.332C37.8125 20.4414 38.1016 20.4961 38.5078 20.4961V20.6602ZM32.7773 2.17969C32.4727 2.17969 32.2148 2.07812 32.0039 1.875C31.793 1.66406 31.6875 1.40625 31.6875 1.10156C31.6875 0.757813 31.7969 0.488281 32.0156 0.292969C32.2422 0.0976562 32.4961 0 32.7773 0C33.0664 0 33.3164 0.109375 33.5273 0.328125C33.7461 0.539062 33.8555 0.796875 33.8555 1.10156C33.8555 1.39063 33.7539 1.64453 33.5508 1.86328C33.3555 2.07422 33.0977 2.17969 32.7773 2.17969ZM28.2305 2.17969C27.918 2.17969 27.6602 2.07422 27.457 1.86328C27.2539 1.65234 27.1523 1.39844 27.1523 1.10156C27.1523 0.765625 27.2617 0.5 27.4805 0.304688C27.6992 0.101563 27.9492 0 28.2305 0C28.5117 0 28.7617 0.105469 28.9805 0.316406C29.207 0.527344 29.3203 0.789062 29.3203 1.10156C29.3203 1.40625 29.207 1.66406 28.9805 1.875C28.7539 2.07812 28.5039 2.17969 28.2305 2.17969ZM40.4297 3.57422V3.39844H45.3281C46.5703 3.39844 47.4688 3.42578 48.0234 3.48047C48.5781 3.53516 49.1445 3.71875 49.7227 4.03125C50.3086 4.33594 50.75 4.75391 51.0469 5.28516C51.3438 5.80859 51.4922 6.45313 51.4922 7.21875C51.4922 8.09375 51.2266 8.92969 50.6953 9.72656C50.1719 10.5156 49.4297 11.1836 48.4688 11.7305L49.6875 13.6055C49.9531 14.0742 50.6562 15.1016 51.7969 16.6875C52.9453 18.2734 53.832 19.2422 54.457 19.5938C55.082 19.9375 55.6875 20.1094 56.2734 20.1094C56.8516 20.1094 57.5156 19.8867 58.2656 19.4414L58.3359 19.6758C57.3984 20.4414 56.1797 20.8242 54.6797 20.8242C53.6797 20.8242 52.8203 20.5312 52.1016 19.9453C51.3828 19.3516 50.1328 17.7266 48.3516 15.0703C48.3359 15.0547 48.3281 15.0391 48.3281 15.0234L46.5938 12.3516L45.0586 12.3984H43.6641V19.0078C43.6641 19.5391 43.7344 19.9219 43.875 20.1562C44.0156 20.3828 44.3555 20.4961 44.8945 20.4961V20.6602H40.4297V20.4961C40.9844 20.4727 41.3281 20.3555 41.4609 20.1445C41.6016 19.9336 41.6719 19.5039 41.6719 18.8555V5.13281C41.6719 4.6875 41.6133 4.32031 41.4961 4.03125C41.3789 3.73438 41.0234 3.58203 40.4297 3.57422ZM43.6641 3.85547V11.9531H45.4688C46.8906 11.9531 47.9453 11.6172 48.6328 10.9453C49.3203 10.2734 49.6641 9.39062 49.6641 8.29688C49.6641 7.23438 49.3242 6.23047 48.6445 5.28516C47.9727 4.33203 46.7852 3.85547 45.082 3.85547H43.6641ZM12.6914 40.0469H3.21094V46.6914C3.21094 47.3164 3.23828 47.7148 3.29297 47.8867C3.35547 48.0586 3.46484 48.2031 3.62109 48.3203C3.78516 48.4375 4.06641 48.4961 4.46484 48.4961V48.6602H0V48.4961C0.8125 48.5508 1.21875 48.1562 1.21875 47.3125V33.4258C1.21875 32.6367 1.15234 32.1367 1.01953 31.9258C0.894531 31.7148 0.554688 31.5977 0 31.5742V31.3984H4.46484V31.5742C3.97266 31.6055 3.64062 31.6992 3.46875 31.8555C3.29688 32.0117 3.21094 32.332 3.21094 32.8164V39.5664H12.6914V33.3906C12.6914 32.6875 12.6289 32.2109 12.5039 31.9609C12.3867 31.7031 12.0508 31.5742 11.4961 31.5742V31.3984H15.9141V31.5742C15.5625 31.5742 15.3008 31.6172 15.1289 31.7031C14.957 31.7812 14.8398 31.9062 14.7773 32.0781C14.7148 32.25 14.6836 32.6875 14.6836 33.3906V46.6445C14.6836 47.3242 14.7148 47.75 14.7773 47.9219C14.8398 48.0859 14.9492 48.2227 15.1055 48.332C15.2617 48.4414 15.5312 48.4961 15.9141 48.4961V48.6602H11.4961V48.4961C11.9727 48.4961 12.2891 48.3984 12.4453 48.2031C12.6094 48.0078 12.6914 47.4805 12.6914 46.6211V40.0469ZM26.8828 40.7148H21.8438L19.2305 47.2422C19.0508 47.7109 18.9609 48 18.9609 48.1094C18.9609 48.3672 19.1523 48.4961 19.5352 48.4961V48.6602H16.9688V48.4961C17.3125 48.4961 17.6016 48.4141 17.8359 48.25C18.0703 48.0781 18.3281 47.6406 18.6094 46.9375L24.8672 31.1406H25.1602L31.3242 46.3984C31.3242 46.4766 31.4805 46.8477 31.793 47.5117C32.1133 48.168 32.5977 48.4961 33.2461 48.4961V48.6602H29.2148V48.4961C29.582 48.4961 29.7656 48.3516 29.7656 48.0625C29.7656 47.8672 29.6758 47.5547 29.4961 47.125C29.4648 47.0938 29.4375 47.043 29.4141 46.9727C29.3984 46.8945 29.3867 46.8555 29.3789 46.8555L26.8828 40.7148ZM22.0078 40.2344H26.6719L24.3398 34.3516L22.0078 40.2344ZM49.1719 48.6602H45.9141V46C44.25 47.8516 42.2656 48.7773 39.9609 48.7773C38.25 48.7773 36.8906 48.2969 35.8828 47.3359C34.8828 46.375 34.3828 45.0469 34.3828 43.3516V33.0156C34.3828 32.3906 34.3086 31.9961 34.1602 31.832C34.0117 31.6602 33.6641 31.5742 33.1172 31.5742V31.3984H37.6992V31.5742C37.2148 31.5742 36.8711 31.6523 36.668 31.8086C36.4727 31.957 36.375 32.3164 36.375 32.8867V42.3672C36.375 44.3516 36.8398 45.7695 37.7695 46.6211C38.6992 47.4648 39.7578 47.8867 40.9453 47.8867C42.8125 47.8867 44.4688 47.0469 45.9141 45.3672V33.6836C45.9141 32.6602 45.8242 32.0547 45.6445 31.8672C45.4648 31.6719 45.1836 31.5742 44.8008 31.5742H44.6367V31.3984H49.1719V31.5742C48.6094 31.6055 48.2539 31.6992 48.1055 31.8555C47.9648 32.0117 47.8945 32.3086 47.8945 32.7461V46.8086C47.8945 47.3633 47.9219 47.7266 47.9766 47.8984C48.0312 48.0703 48.1406 48.2148 48.3047 48.332C48.4766 48.4414 48.7656 48.4961 49.1719 48.4961V48.6602ZM59.3672 31.6211L60.1875 33.7773L60.0469 33.8008C60.0469 33.793 59.8281 33.5625 59.3906 33.1094C58.9609 32.6562 58.4648 32.3086 57.9023 32.0664C57.3477 31.8164 56.7188 31.6914 56.0156 31.6914C54.8359 31.6914 53.8984 32.0312 53.2031 32.7109C52.5156 33.3828 52.1719 34.1953 52.1719 35.1484C52.1719 35.7812 52.332 36.3359 52.6523 36.8125C52.9805 37.2812 53.6602 37.7188 54.6914 38.125C56.4648 38.7188 57.6758 39.168 58.3242 39.4727C58.9805 39.7695 59.6094 40.2773 60.2109 40.9961C60.8203 41.7148 61.125 42.6367 61.125 43.7617C61.125 44.2305 61.0703 44.6797 60.9609 45.1094C60.8516 45.5312 60.6758 45.9414 60.4336 46.3398C60.1914 46.7305 59.8984 47.0898 59.5547 47.418C59.2188 47.7383 58.875 47.9844 58.5234 48.1562C58.1719 48.3203 57.6172 48.4453 56.8594 48.5312C56.1016 48.6172 55.6016 48.6602 55.3594 48.6602H50.7539V43.6445H50.9297C50.9453 45.3086 51.3359 46.4688 52.1016 47.125C52.8672 47.7812 54.0586 48.1094 55.6758 48.1094C57.1445 48.1094 58.2578 47.7617 59.0156 47.0664C59.7812 46.3711 60.1641 45.5352 60.1641 44.5586C60.1641 43.9648 60.0312 43.4609 59.7656 43.0469C59.5 42.625 59.1289 42.2578 58.6523 41.9453C58.1758 41.625 57.2734 41.2383 55.9453 40.7852C54.625 40.3242 53.6953 39.9219 53.1562 39.5781C52.625 39.2266 52.1797 38.7031 51.8203 38.0078C51.4609 37.3047 51.2812 36.5898 51.2812 35.8633C51.2812 34.5273 51.7383 33.4062 52.6523 32.5C53.5742 31.5938 54.7812 31.1406 56.2734 31.1406C56.8516 31.1406 57.4766 31.207 58.1484 31.3398C58.8203 31.4727 59.1953 31.5586 59.2734 31.5977C59.3047 31.6133 59.3359 31.6211 59.3672 31.6211Z" fill="black"/>
</svg>
